<svg width="171" height="112" viewBox="0 0 171 112" fill="none" xmlns="http://www.w3.org/2000/svg">
<path d="M23.2123 7.06541C23.7808 7.32794 23.6552 8.56896 23.6204 9.18707C22.7551 24.5602 21.2643 39.8778 20.3557 55.2494C19.8223 64.2747 19.6996 73.8336 21.3533 82.7193C22.793 90.4553 28.9346 99.5974 36.0442 95.2818C40.8098 92.389 45.1384 86.1286 48.604 81.3235C53.3627 74.7255 57.9095 67.7762 62.2066 60.7211C65.0786 56.0059 67.3493 50.7618 69.8241 45.7299C70.5878 44.1772 72.1654 39.0733 71.6832 40.7886C70.6297 44.5361 70.1415 48.6404 70.1415 52.5974C70.1415 63.5476 72.0074 74.4403 72.1819 85.3993C72.2588 90.2232 72.7748 95.5467 73.6102 100.279C73.735 100.986 74.1835 105.592 75.0385 103.545C76.5464 99.9347 76.7783 95.2016 77.8044 91.3177C79.4492 85.0913 81.3273 79.2254 84.0616 73.5627C86.6693 68.1623 89.3867 62.9077 92.6766 58.0969C94.5352 55.3793 96.5673 51.307 99.1379 49.5265C104.002 46.1571 102.983 57.1704 103.287 60.1628C103.75 64.7255 103.859 69.3299 104.33 73.8977C104.731 77.7862 105.252 81.7201 105.622 85.5948C105.845 87.9265 107.219 87.1662 108.093 85.7064C110.198 82.1891 111.665 78.3024 113.715 74.7352C116.129 70.5354 118.176 66.0046 121.152 62.3402C122.928 60.1534 125.215 56.6442 128.089 56.8128C132.052 57.0452 131.354 70.4148 131.354 73.3673C131.354 80.0334 133.548 88.8789 136.704 94.2768C139.284 98.6898 144.546 102.439 149.082 101.423C152.93 100.562 155.47 96.4502 157.493 92.7135C161.642 85.0508 162.712 76.2491 164 67.3652M8.07882 19.0654C8.02877 19.1272 6.48594 20.854 7.17846 21.0654C12.8671 22.8024 20.1681 22.7508 25.7933 23.2321C33.5988 23.8999 41.2267 23.8173 49 24.0654" stroke="white" stroke-width="14" stroke-linecap="round"/>
</svg>
